<svg version="1.1" xmlns="http://www.w3.org/2000/svg" xmlns:xlink="http://www.w3.org/1999/xlink" width="6.01989" height="8.97588" viewBox="0,0,6.01989,8.97588"><g transform="translate(-236.99004,-175.51206)"><g data-paper-data="{&quot;isPaintingLayer&quot;:true}" fill="#ff0000" fill-rule="nonzero" stroke="none" stroke-width="0.5" stroke-linecap="butt" stroke-linejoin="miter" stroke-miterlimit="10" stroke-dasharray="" stroke-dashoffset="0" style="mix-blend-mode: normal"><path d="M238.01991,178.31902c-0.8092,-0.26973 -0.53948,-1.07895 -0.53948,-1.07895l0.33401,-0.71726c0.27646,-0.26088 0.48759,-0.61632 0.82938,-0.78265c1.73617,-0.84487 4.05447,0.78668 3.68086,2.76889c-0.04035,0.21407 -0.13594,0.44977 -0.27268,0.67728c0.16967,0.12262 0.32454,0.27265 0.45786,0.4614c1.99304,2.82136 -2.45421,6.675 -4.86599,3.85716c-0.64229,-0.75043 -0.5804,-1.41333 -0.65288,-2.2878c0,0 -0.06078,-0.85081 0.79005,-0.91159c0.85081,-0.06078 0.91159,0.79005 0.91159,0.79005c0.20175,3.62127 4.1307,0.09772 1.51849,-0.84938c-0.00075,-0.00013 -0.00152,-0.00028 -0.00227,-0.00042v0.03626h-0.89564c-0.4711,0 -0.85299,-0.38189 -0.85299,-0.85299c0,-0.45304 0.35318,-0.82359 0.79924,-0.85131l0.83888,-0.05992c0.14399,-0.14879 0.51747,-0.1335 0.55362,-0.34391c0.20138,-1.17231 -1.14887,-0.97722 -1.63124,-0.44477l0.07812,0.05043c0,0 -0.26973,0.8092 -1.07895,0.53948z"/></g></g></svg>