<svg version="1.1" xmlns="http://www.w3.org/2000/svg" xmlns:xlink="http://www.w3.org/1999/xlink" width="7.31726" height="8.20338" viewBox="0,0,7.31726,8.20338"><g transform="translate(-236.34137,-175.89831)"><g data-paper-data="{&quot;isPaintingLayer&quot;:true}" fill="#ff0000" fill-rule="nonzero" stroke="none" stroke-width="0.5" stroke-linecap="butt" stroke-linejoin="miter" stroke-miterlimit="10" stroke-dasharray="" stroke-dashoffset="0" style="mix-blend-mode: normal"><path d="M240.88737,182.0183c-0.00827,-0.01948 1.10564,-0.16927 1.74992,0.03974c0.61545,0.19966 0.75769,0.75465 0.95067,0.89663c0.39072,0.28748 -0.95221,0.75505 -1.25419,0.93296c-1.0371,0.61098 -5.60992,-0.10368 -5.99239,-1.91764c0.00243,-0.75072 4.28644,-2.1511 5.20156,-3.66611c0.4598,-0.76121 -1.44046,-0.80342 -1.89335,-0.37198c0,0 -0.70476,0.55753 -1.2623,-0.14723c-0.55753,-0.70476 0.14723,-1.2623 0.14723,-1.2623c1.79973,-1.29609 5.66779,-0.61165 4.69108,2.41298c-0.4256,1.31798 -1.70544,1.78596 -2.78798,2.35021c-0.54707,0.28515 -0.84525,1.16935 -0.1247,0.86041z"/></g></g></svg>