<svg version="1.1" xmlns="http://www.w3.org/2000/svg" xmlns:xlink="http://www.w3.org/1999/xlink" width="68.39429" height="78.3256" viewBox="0,0,68.39429,78.3256"><g transform="translate(-300.62793,-38.71154)"><g stroke-miterlimit="10"><path d="M367.52221,72.53286c0,17.85057 -14.63901,32.32131 -32.69714,32.32131c-18.05813,0 -32.69714,-14.47075 -32.69714,-32.32131c0,-17.85057 14.63901,-32.32131 32.69714,-32.32131c18.05814,0 32.69714,14.47075 32.69714,32.32131z" fill="none" stroke="#ffffff" stroke-width="3"/><path d="M322.29365,85.52721l6.4083,-9.76936l12.6903,0.03737l5.988,9.54406z" fill="#ffffff" stroke="none" stroke-width="0"/><path d="M329.59204,73.91506l5.17957,-9.13912l0.26349,-0.11922l5.83183,9.37756z" fill="#ffffff" stroke="none" stroke-width="0"/><text transform="translate(324.89193,47.98695) scale(0.14129,0.14129)" font-size="40" xml:space="preserve" fill="#ffffff" stroke="none" stroke-width="1" font-family="&quot;impact&quot;, Sans Serif" font-weight="normal" text-anchor="start"><tspan x="0" dy="0">NATIONAL</tspan></text><text transform="translate(319.63032,53.5707) scale(0.14129,0.14129)" font-size="40" xml:space="preserve" fill="#ffffff" stroke="none" stroke-width="1" font-family="&quot;impact&quot;, Sans Serif" font-weight="normal" text-anchor="start"><tspan x="0" dy="0">ORGANIZATION </tspan></text><text transform="translate(322.97252,94.14653) scale(0.1186,0.1186)" font-size="40" xml:space="preserve" fill="#ffffff" stroke="none" stroke-width="1" font-family="&quot;impact&quot;, Sans Serif" font-weight="normal" text-anchor="start"><tspan x="0" dy="0">SUBAQUATIC</tspan></text><text transform="translate(321.73009,100.24012) scale(0.16142,0.16142)" font-size="40" xml:space="preserve" fill="#ffffff" stroke="none" stroke-width="1" font-family="&quot;impact&quot;, Sans Serif" font-weight="normal" text-anchor="start"><tspan x="0" dy="0">RESEARCH</tspan></text><text transform="translate(331.79646,89.97315) scale(0.09175,0.09175)" font-size="40" xml:space="preserve" fill="#ffffff" stroke="none" stroke-width="1" font-family="&quot;impact&quot;, Sans Serif" font-weight="normal" text-anchor="start"><tspan x="0" dy="0">FOR</tspan></text><path d="M321.38917,85.68688v-26.30805h26.87179v26.30805z" fill="none" stroke="#ffffff" stroke-width="3"/><text transform="translate(320.86744,112.2406) rotate(14.0804) scale(0.2325,0.2325)" font-size="40" xml:space="preserve" fill="#ffffff" stroke="none" stroke-width="1" font-family="&quot;impact&quot;, Sans Serif" font-weight="normal" text-anchor="start"><tspan x="0" dy="0">N</tspan></text><text transform="translate(328.20389,114.1938) rotate(6.92843) scale(0.2325,0.2325)" font-size="40" xml:space="preserve" fill="#ffffff" stroke="none" stroke-width="1" font-family="&quot;impact&quot;, Sans Serif" font-weight="normal" text-anchor="start"><tspan x="0" dy="0">O</tspan></text><text transform="translate(345.84613,113.65599) rotate(-26.68945) scale(0.2325,0.2325)" font-size="40" xml:space="preserve" fill="#ffffff" stroke="none" stroke-width="1" font-family="&quot;impact&quot;, Sans Serif" font-weight="normal" text-anchor="start"><tspan x="0" dy="0">R</tspan></text><text transform="translate(336.70443,115.06291) rotate(-7.62156) scale(0.2325,0.2325)" font-size="40" xml:space="preserve" fill="#ffffff" stroke="none" stroke-width="1" font-family="&quot;impact&quot;, Sans Serif" font-weight="normal" text-anchor="start"><tspan x="0" dy="0">S</tspan></text></g></g></svg>