<svg version="1.1" xmlns="http://www.w3.org/2000/svg" xmlns:xlink="http://www.w3.org/1999/xlink" width="6.86165" height="8.79258" viewBox="0,0,6.86165,8.79258"><g transform="translate(-236.5692,-175.60371)"><g data-paper-data="{&quot;isPaintingLayer&quot;:true}" fill="#ff0000" fill-rule="nonzero" stroke="none" stroke-width="0.5" stroke-linecap="butt" stroke-linejoin="miter" stroke-miterlimit="10" stroke-dasharray="" stroke-dashoffset="0" style="mix-blend-mode: normal"><path d="M239.64021,175.63589c0.80215,0.20054 0.60161,1.00268 0.60161,1.00268l-0.12461,0.41729c-0.44014,0.88027 -0.8193,1.5477 -1.44788,2.30406c-0.2053,0.24704 -0.88112,0.81442 -0.56144,0.78318c0.7213,-0.0705 1.42269,-0.13925 2.13623,-0.17428c-0.00992,-0.63891 -0.01791,-1.27805 -0.01894,-1.91845l-0.05862,-0.60728c0,0 -0.07486,-0.82344 0.74858,-0.8983c0.82344,-0.07486 0.8983,0.74858 0.8983,0.74858l0.06541,0.75699c-0.00093,0.6387 0.00605,1.27493 0.01563,1.91057c0.25861,0.01177 0.52155,0.03041 0.79012,0.05726c0,0 0.82273,0.08227 0.74046,0.905c-0.08227,0.82273 -0.905,0.74046 -0.905,0.74046c-0.20101,-0.02012 -0.40025,-0.03613 -0.59824,-0.04895c0.01032,0.64986 0.01855,1.30079 0.01905,1.95476c0,0 0,0.82683 -0.82683,0.82683c-0.82683,0 -0.82683,-0.82683 -0.82683,-0.82683c0.00054,-0.6704 -0.0071,-1.33894 -0.01719,-2.00679c-0.56363,-0.00542 -1.12864,-0.00511 -1.70721,-0.02066c-0.50562,-0.01359 -1.16274,0.23852 -1.51205,-0.12729c-1.49567,-1.56633 0.90839,-3.7404 1.58739,-5.0984l-0.00059,-0.07881c0,0 0.20054,-0.80215 1.00268,-0.60161z"/></g></g></svg>