<svg version="1.1" xmlns="http://www.w3.org/2000/svg" xmlns:xlink="http://www.w3.org/1999/xlink" width="6.63794" height="8.44084" viewBox="0,0,6.63794,8.44084"><g transform="translate(-236.68103,-175.77958)"><g data-paper-data="{&quot;isPaintingLayer&quot;:true}" fill="#ff0000" fill-rule="nonzero" stroke="none" stroke-width="0.5" stroke-linecap="butt" stroke-linejoin="miter" stroke-miterlimit="10" stroke-dasharray="" stroke-dashoffset="0" style="mix-blend-mode: normal"><path d="M240.16243,180.92195c-0.35651,0.20276 -0.39914,0.87705 -0.17174,1.21838l0.00139,0.00016c0.48201,-0.39822 0.75913,-1.13147 0.25521,-1.29431c-0.04948,0.04922 -0.08487,0.07577 -0.08487,0.07577zM238.71143,179.21159c0.05275,-0.02105 0.10676,-0.03901 0.16233,-0.05311c0.49313,-0.12519 1.02648,-0.11497 1.5262,-0.01936c4.0373,0.77241 1.15873,6.21528 -2.05103,4.86788c-1.47294,-0.61832 -1.6679,-2.12645 -1.6679,-3.47699c0,-3.34565 3.05156,-6.05087 6.20631,-4.08735c0,0 0.76734,0.51156 0.25578,1.2789c-0.51156,0.76734 -1.2789,0.25578 -1.2789,0.25578c-1.33378,-0.99749 -2.59,-0.07891 -3.15279,1.23426z"/></g></g></svg>