<svg version="1.1" xmlns="http://www.w3.org/2000/svg" xmlns:xlink="http://www.w3.org/1999/xlink" width="6.61859" height="8.33938" viewBox="0,0,6.61859,8.33938"><g transform="translate(-236.69071,-175.83031)"><g data-paper-data="{&quot;isPaintingLayer&quot;:true}" fill="#ff0000" fill-rule="nonzero" stroke="none" stroke-width="0.5" stroke-linecap="butt" stroke-linejoin="miter" stroke-miterlimit="10" stroke-dasharray="" stroke-dashoffset="0" style="mix-blend-mode: normal"><path d="M243.25232,177.67677c-0.27916,0.8375 -1.11666,0.55833 -1.11666,0.55833l-0.48191,-0.16892c-1.02749,-0.19597 -3.33429,-1.33319 -3.35042,0.54467c-0.00091,0.10567 0.16483,-0.1557 0.26999,-0.16616c0.69403,-0.06906 1.4399,-0.14469 2.08952,0.10915c1.30069,0.50823 2.23925,2.04428 2.02894,3.41203c-0.52862,3.43793 -5.06136,2.48839 -5.58808,-0.34657c0,0 -0.11667,-0.87505 0.75838,-0.99173c0.87505,-0.11667 0.99173,0.75838 0.99173,0.75838c0.04747,1.65056 2.62616,1.11566 2.07117,-0.23855c-0.75765,-1.84871 -3.12969,0.01231 -4.06532,-1.52013c-0.31717,-0.51948 -0.10918,-1.22587 -0.00737,-1.82595c0.49375,-2.91016 3.16706,-1.84329 5.13184,-1.46957l0.70987,0.22834c0,0 0.8375,0.27916 0.55833,1.11666z"/></g></g></svg>