<svg version="1.1" xmlns="http://www.w3.org/2000/svg" xmlns:xlink="http://www.w3.org/1999/xlink" width="6.07796" height="7.8726" viewBox="0,0,6.07796,7.8726"><g transform="translate(-236.96104,-176.0637)"><g data-paper-data="{&quot;isPaintingLayer&quot;:true}" fill="#ff0000" fill-rule="nonzero" stroke="none" stroke-width="0.5" stroke-linecap="butt" stroke-linejoin="miter" stroke-miterlimit="10" stroke-dasharray="" stroke-dashoffset="0" style="mix-blend-mode: normal"><path d="M239.87167,183.85963c-0.81179,0.32472 -1.1365,-0.48707 -1.1365,-0.48707l-0.18601,-0.53703c-0.1993,-1.95309 0.62923,-2.30408 1.67194,-3.71748c0.0522,-0.07076 0.58302,-1.03591 0.94526,-1.46545c-0.80269,0.23977 -2.88315,0.55333 -3.13465,0.60937c0,0 -0.8535,0.18967 -1.04317,-0.66384c-0.18967,-0.8535 0.66384,-1.04317 0.66384,-1.04317c0.85658,-0.18989 1.35198,-0.33212 2.20315,-0.41013c0.43473,-0.03984 0.87304,-0.10872 1.30781,-0.0694c4.83053,0.43676 -1.23657,4.62755 -0.88086,6.529l0.07628,0.11871c0,0 0.32472,0.81179 -0.48707,1.1365z"/></g></g></svg>