<svg version="1.1" xmlns="http://www.w3.org/2000/svg" xmlns:xlink="http://www.w3.org/1999/xlink" width="6.56849" height="8.28937" viewBox="0,0,6.56849,8.28937"><g transform="translate(-236.71575,-175.85531)"><g data-paper-data="{&quot;isPaintingLayer&quot;:true}" fill="#ff0000" fill-rule="nonzero" stroke="none" stroke-width="0.5" stroke-linecap="butt" stroke-linejoin="miter" stroke-miterlimit="10" stroke-dasharray="" stroke-dashoffset="0" style="mix-blend-mode: normal"><path d="M241.19598,179.09463c-0.26142,-1.07758 -0.91574,-1.78453 -2.33017,-1.23564c-0.82073,0.3185 0.01139,1.20476 0.47842,1.3706c0.6158,0.21867 1.26172,0.07436 1.85175,-0.13496zM241.33575,180.9755c-0.87446,0.23966 -1.79234,0.32631 -2.67928,-0.02739c-2.03462,-0.81139 -2.81427,-3.55834 -0.6322,-4.7378c1.65608,-0.89515 3.96486,-0.00036 4.79305,1.59938c0.79001,1.52598 0.41096,4.00188 0.07277,5.5967c0,0 -0.19392,0.90497 -1.09889,0.71105c-0.90497,-0.19392 -0.71105,-1.09889 -0.71105,-1.09889c0.1017,-0.46905 0.22222,-1.23521 0.25559,-2.04304z"/></g></g></svg>