<svg version="1.1" xmlns="http://www.w3.org/2000/svg" xmlns:xlink="http://www.w3.org/1999/xlink" width="5.71983" height="8.35942" viewBox="0,0,5.71983,8.35942"><g transform="translate(-237.14008,-175.82028)"><g data-paper-data="{&quot;isPaintingLayer&quot;:true}" fill="#ff0000" fill-rule="nonzero" stroke="none" stroke-width="0.5" stroke-linecap="butt" stroke-linejoin="miter" stroke-miterlimit="10" stroke-dasharray="" stroke-dashoffset="0" style="mix-blend-mode: normal"><path d="M241.95022,179.11358c0.67042,0.67378 1.02338,1.60617 0.87685,2.61555c-0.27952,1.92541 -2.72823,3.11541 -4.44385,2.05057c-0.70017,-0.43458 -0.89074,-0.89078 -0.96274,-1.43594c-0.35782,-0.30944 -0.27118,-0.82929 -0.27118,-0.82929l0.11494,-0.57861c0.30433,-0.72375 0.68464,-1.22135 1.15993,-1.61093c-1.13663,-0.46786 -1.89692,-1.07998 -0.39747,-2.76111c1.40021,-1.56987 4.68321,-0.50657 4.32701,1.81228c-0.04319,0.28117 -0.21253,0.51351 -0.40348,0.73748zM240.39735,180.16293c-0.51502,0.24589 -0.97961,0.53279 -1.26833,1.0042c0.00261,0.01996 0.00336,0.03126 0.00336,0.03126c0.03878,1.89833 2.37321,1.07746 1.88982,-0.32496c-0.10113,-0.2934 -0.32858,-0.52083 -0.62486,-0.71051zM240.28364,178.30723c0.02538,-0.01066 0.05091,-0.02134 0.07659,-0.03205c0.94434,-0.82397 -1.39436,-0.62454 -1.29788,-0.34036c0.14275,0.42042 0.69623,0.36378 1.22129,0.37241z"/></g></g></svg>