<svg version="1.1" xmlns="http://www.w3.org/2000/svg" xmlns:xlink="http://www.w3.org/1999/xlink" width="6.09624" height="9.41043" viewBox="0,0,6.09624,9.41043"><g transform="translate(-236.95189,-175.29479)"><g data-paper-data="{&quot;isPaintingLayer&quot;:true}" fill="#ff0000" fill-rule="nonzero" stroke="none" stroke-width="0.5" stroke-linecap="butt" stroke-linejoin="miter" stroke-miterlimit="10" stroke-dasharray="" stroke-dashoffset="0" style="mix-blend-mode: normal"><path d="M243.03059,183.91637c-0.15583,0.93494 -1.09076,0.77912 -1.09076,0.77912l-0.40475,-0.06772c-1.2455,-0.17801 -2.46957,-0.37344 -3.72346,-0.49236c0,0 -0.94357,-0.08986 -0.8537,-1.03343c0.08986,-0.94357 1.03343,-0.8537 1.03343,-0.8537c0.34945,0.03341 0.69665,0.07242 1.04267,0.11516l0.00222,-0.00998c0.29357,-1.3698 0.64053,-2.68423 1.09391,-4.01095c0.06322,-0.18501 0.12688,-0.47784 0.20297,-0.74813c-0.68091,0.28874 -1.73328,0.51929 -1.86307,0.54967c0,0 -0.92356,0.21312 -1.13669,-0.71043c-0.21312,-0.92356 0.71043,-1.13669 0.71043,-1.13669c0.8284,-0.18799 3.15985,-1.4336 3.88788,-0.84581c0.54112,0.43688 0.4647,1.33865 0.46407,2.03411c-0.00134,1.49617 -1.10729,3.57799 -1.47708,5.13778c0.2941,0.04282 0.58873,0.08592 0.88452,0.12816l0.44831,0.07446c0,0 0.93494,0.15583 0.77912,1.09076z"/></g></g></svg>